<?xml version="1.0" encoding="UTF-8" standalone="no"?>
<!-- Generator: Gravit.io -->
<svg xmlns="http://www.w3.org/2000/svg" xmlns:xlink="http://www.w3.org/1999/xlink" style="isolation:isolate" viewBox="0 0 256 256" width="256pt" height="256pt"><defs><clipPath id="_clipPath_fkFugCL9lTmGTs0iiGoYijBxbLYyNvl4"><rect width="256" height="256"/></clipPath></defs><g clip-path="url(#_clipPath_fkFugCL9lTmGTs0iiGoYijBxbLYyNvl4)"><clipPath id="_clipPath_2DEKUchOyFYrCXsKvKupe0EcG114J755"><rect x="0" y="0" width="256" height="256" transform="matrix(1,0,0,1,0,0)" fill="rgb(255,255,255)"/></clipPath><g clip-path="url(#_clipPath_2DEKUchOyFYrCXsKvKupe0EcG114J755)"><g><linearGradient id="_lgradient_0" x1="0" y1="0.5000000000000001" x2="1.000007633296439" y2="0.5000000000000001" gradientTransform="matrix(175.535,0,0,62.899,38.512,0)" gradientUnits="userSpaceOnUse"><stop offset="0%" stop-opacity="1" style="stop-color:rgb(0,255,68)"/><stop offset="100%" stop-opacity="1" style="stop-color:rgb(0,204,255)"/></linearGradient><path d=" M 214.047 57.907 C 195.957 61.119 176.007 62.899 155.052 62.899 C 107.856 62.899 65.766 53.868 38.512 39.797 L 65.416 0 C 87.964 9.968 117.47 17.442 150.12 20.462 C 167.464 22.067 184.167 22.273 199.611 21.266 L 214.047 57.907 Z " fill="url(#_lgradient_0)"/><linearGradient id="_lgradient_1" x1="0.9271837984982054" y1="0.11211061019463475" x2="0.5105165083667592" y2="1.2341382006714403" gradientTransform="matrix(95.934,0,0,233.123,121.554,23.048)" gradientUnits="userSpaceOnUse"><stop offset="0%" stop-opacity="1" style="stop-color:rgb(0,140,255)"/><stop offset="100%" stop-opacity="1" style="stop-color:rgb(162,0,255)"/></linearGradient><path d=" M 200.313 23.048 C 154.325 56.948 121.554 144.24 121.554 246.467 C 121.554 249.498 121.584 252.517 121.64 255.521 L 121.64 255.521 L 178.369 256.171 C 178.013 248.952 177.831 241.624 177.831 234.206 C 177.831 165.647 193.423 104.756 217.488 66.64 L 200.313 23.048 L 200.313 23.048 Z " fill="url(#_lgradient_1)"/></g></g></g></svg>