<?xml version="1.0" encoding="UTF-8" standalone="no"?>
<!-- Generator: Gravit.io -->
<svg xmlns="http://www.w3.org/2000/svg" xmlns:xlink="http://www.w3.org/1999/xlink" style="isolation:isolate" viewBox="0 0 880 256" width="880pt" height="256pt"><defs><clipPath id="_clipPath_G7ELDKwHx0EjYGzX03yxGLPXYnXMpuJm"><rect width="880" height="256"/></clipPath></defs><g clip-path="url(#_clipPath_G7ELDKwHx0EjYGzX03yxGLPXYnXMpuJm)"><clipPath id="_clipPath_1h3zfljeeYADID6Fn00DXs8FBHzAK3SE"><rect x="0" y="0" width="880" height="256" transform="matrix(1,0,0,1,0,0)" fill="rgb(255,255,255)"/></clipPath><g clip-path="url(#_clipPath_1h3zfljeeYADID6Fn00DXs8FBHzAK3SE)"><g><clipPath id="_clipPath_NXfHDrfs51EU39B2uS531eBXa9JM1OAO"><rect x="-38" y="-30.481" width="363.54" height="302.77" transform="matrix(1,0,0,1,0,0)" fill="rgb(255,255,255)"/></clipPath><g clip-path="url(#_clipPath_NXfHDrfs51EU39B2uS531eBXa9JM1OAO)"><g><g><linearGradient id="_lgradient_2" x1="0" y1="0.5" x2="1.0000076332964392" y2="0.5" gradientTransform="matrix(186.037,0,0,55.519,33.038,10.981)" gradientUnits="userSpaceOnUse"><stop offset="0%" stop-opacity="1" style="stop-color:rgb(0,255,68)"/><stop offset="100%" stop-opacity="1" style="stop-color:rgb(0,204,255)"/></linearGradient><path d=" M 219.075 62.093 C 199.903 64.928 178.759 66.5 156.551 66.5 C 106.531 66.5 61.922 58.529 33.038 46.108 L 61.552 10.981 C 85.449 19.779 116.72 26.376 151.323 29.042 C 169.705 30.459 187.407 30.641 203.775 29.751 L 219.075 62.093 L 219.075 62.093 Z " fill="url(#_lgradient_2)"/><linearGradient id="_lgradient_3" x1="0.9271837984982054" y1="0.11211061019463478" x2="0.7111732653304302" y2="1.2893518743445298" gradientTransform="matrix(101.673,0,0,205.77,121.049,31.324)" gradientUnits="userSpaceOnUse"><stop offset="0%" stop-opacity="1" style="stop-color:rgb(0,140,255)"/><stop offset="100%" stop-opacity="1" style="stop-color:rgb(162,0,255)"/></linearGradient><path d=" M 204.519 31.324 C 155.779 61.247 121.049 138.297 121.049 228.529 C 121.049 231.205 121.08 233.869 121.14 236.521 L 121.14 236.521 L 181.263 237.094 C 180.885 230.722 180.692 224.254 180.692 217.706 C 180.692 157.192 197.217 103.445 222.722 69.802 L 204.519 31.324 L 204.519 31.324 L 204.519 31.324 Z " fill="url(#_lgradient_3)"/></g></g></g><path d=" M 325.54 199.973 L 302.225 199.973 L 302.225 62.11 L 325.54 62.11 L 325.54 199.973 L 325.54 199.973 Z  M 371.764 79.342 L 256 79.342 L 256 58.055 L 371.764 58.055 L 371.764 79.342 L 371.764 79.342 Z  M 404.608 202 L 404.608 202 L 404.608 202 Q 391.43 202 380.786 195.31 L 380.786 195.31 L 380.786 195.31 Q 370.142 188.619 363.959 177.164 L 363.959 177.164 L 363.959 177.164 Q 357.775 165.71 357.775 151.518 L 357.775 151.518 L 357.775 151.518 Q 357.775 137.123 363.959 125.668 L 363.959 125.668 L 363.959 125.668 Q 370.142 114.214 380.786 107.422 L 380.786 107.422 L 380.786 107.422 Q 391.43 100.63 404.608 100.63 L 404.608 100.63 L 404.608 100.63 Q 415.759 100.63 424.375 105.395 L 424.375 105.395 L 424.375 105.395 Q 432.992 110.159 438.06 118.471 L 438.06 118.471 L 438.06 118.471 Q 443.129 126.784 443.129 137.326 L 443.129 137.326 L 443.129 165.304 L 443.129 165.304 Q 443.129 175.847 438.162 184.159 L 438.162 184.159 L 438.162 184.159 Q 433.195 192.471 424.477 197.236 L 424.477 197.236 L 424.477 197.236 Q 415.759 202 404.608 202 Z  M 408.258 180.915 L 408.258 180.915 L 408.258 180.915 Q 420.625 180.915 428.227 172.603 L 428.227 172.603 L 428.227 172.603 Q 435.83 164.29 435.83 151.315 L 435.83 151.315 L 435.83 151.315 Q 435.83 142.597 432.384 135.907 L 432.384 135.907 L 432.384 135.907 Q 428.937 129.216 422.753 125.466 L 422.753 125.466 L 422.753 125.466 Q 416.57 121.715 408.258 121.715 L 408.258 121.715 L 408.258 121.715 Q 400.148 121.715 393.964 125.466 L 393.964 125.466 L 393.964 125.466 Q 387.781 129.216 384.233 135.907 L 384.233 135.907 L 384.233 135.907 Q 380.685 142.597 380.685 151.315 L 380.685 151.315 L 380.685 151.315 Q 380.685 160.033 384.233 166.723 L 384.233 166.723 L 384.233 166.723 Q 387.781 173.414 393.964 177.164 L 393.964 177.164 L 393.964 177.164 Q 400.148 180.915 408.258 180.915 Z  M 456.712 199.973 L 434.411 199.973 L 434.411 173.819 L 438.263 150.099 L 434.411 126.581 L 434.411 102.658 L 456.712 102.658 L 456.712 199.973 L 456.712 199.973 Z  M 513.277 202 L 513.277 202 L 513.277 202 Q 505.167 202 497.666 199.871 L 497.666 199.871 L 497.666 199.871 Q 490.164 197.742 483.879 193.789 L 483.879 193.789 L 483.879 193.789 Q 477.595 189.836 472.932 184.159 L 472.932 184.159 L 487.123 169.967 L 487.123 169.967 Q 492.192 175.847 498.781 178.786 L 498.781 178.786 L 498.781 178.786 Q 505.37 181.726 513.682 181.726 L 513.682 181.726 L 513.682 181.726 Q 521.184 181.726 525.036 179.496 L 525.036 179.496 L 525.036 179.496 Q 528.888 177.266 528.888 173.008 L 528.888 173.008 L 528.888 173.008 Q 528.888 168.548 525.238 166.115 L 525.238 166.115 L 525.238 166.115 Q 521.589 163.682 515.811 161.959 L 515.811 161.959 L 515.811 161.959 Q 510.033 160.236 503.647 158.411 L 503.647 158.411 L 503.647 158.411 Q 497.26 156.586 491.482 153.444 L 491.482 153.444 L 491.482 153.444 Q 485.704 150.301 482.055 144.827 L 482.055 144.827 L 482.055 144.827 Q 478.405 139.353 478.405 130.636 L 478.405 130.636 L 478.405 130.636 Q 478.405 121.31 482.764 114.619 L 482.764 114.619 L 482.764 114.619 Q 487.123 107.929 495.132 104.279 L 495.132 104.279 L 495.132 104.279 Q 503.14 100.63 514.29 100.63 L 514.29 100.63 L 514.29 100.63 Q 526.049 100.63 535.071 104.786 L 535.071 104.786 L 535.071 104.786 Q 544.093 108.942 550.175 117.255 L 550.175 117.255 L 535.984 131.447 L 535.984 131.447 Q 531.726 126.175 526.252 123.54 L 526.252 123.54 L 526.252 123.54 Q 520.778 120.904 513.682 120.904 L 513.682 120.904 L 513.682 120.904 Q 506.992 120.904 503.342 122.932 L 503.342 122.932 L 503.342 122.932 Q 499.693 124.959 499.693 128.811 L 499.693 128.811 L 499.693 128.811 Q 499.693 132.866 503.342 135.096 L 503.342 135.096 L 503.342 135.096 Q 506.992 137.326 512.77 138.948 L 512.77 138.948 L 512.77 138.948 Q 518.548 140.57 524.934 142.496 L 524.934 142.496 L 524.934 142.496 Q 531.321 144.422 537.099 147.767 L 537.099 147.767 L 537.099 147.767 Q 542.877 151.112 546.526 156.688 L 546.526 156.688 L 546.526 156.688 Q 550.175 162.263 550.175 171.184 L 550.175 171.184 L 550.175 171.184 Q 550.175 185.375 540.241 193.688 L 540.241 193.688 L 540.241 193.688 Q 530.307 202 513.277 202 Z  M 658.844 199.973 L 630.46 199.973 L 589.304 150.301 L 630.258 102.658 L 656.816 102.658 L 609.781 156.181 L 610.795 143.408 L 658.844 199.973 L 658.844 199.973 Z  M 590.926 199.973 L 568.625 199.973 L 568.625 54 L 590.926 54 L 590.926 199.973 L 590.926 199.973 Z  M 712.57 202 L 712.57 202 L 712.57 202 Q 697.973 202 686.315 195.411 L 686.315 195.411 L 686.315 195.411 Q 674.658 188.822 667.866 177.266 L 667.866 177.266 L 667.866 177.266 Q 661.074 165.71 661.074 151.315 L 661.074 151.315 L 661.074 151.315 Q 661.074 136.921 667.764 125.466 L 667.764 125.466 L 667.764 125.466 Q 674.455 114.011 685.91 107.321 L 685.91 107.321 L 685.91 107.321 Q 697.364 100.63 711.353 100.63 L 711.353 100.63 L 711.353 100.63 Q 724.937 100.63 735.378 106.915 L 735.378 106.915 L 735.378 106.915 Q 745.819 113.2 751.8 124.148 L 751.8 124.148 L 751.8 124.148 Q 757.781 135.096 757.781 149.085 L 757.781 149.085 L 757.781 149.085 Q 757.781 151.518 757.477 154.052 L 757.477 154.052 L 757.477 154.052 Q 757.173 156.586 756.564 159.627 L 756.564 159.627 L 676.685 159.627 L 676.685 141.381 L 745.008 141.381 L 736.696 148.679 L 736.696 148.679 Q 736.29 139.759 733.249 133.677 L 733.249 133.677 L 733.249 133.677 Q 730.208 127.595 724.633 124.351 L 724.633 124.351 L 724.633 124.351 Q 719.058 121.107 710.948 121.107 L 710.948 121.107 L 710.948 121.107 Q 702.433 121.107 696.148 124.756 L 696.148 124.756 L 696.148 124.756 Q 689.863 128.405 686.416 134.995 L 686.416 134.995 L 686.416 134.995 Q 682.97 141.584 682.97 150.707 L 682.97 150.707 L 682.97 150.707 Q 682.97 159.83 686.619 166.723 L 686.619 166.723 L 686.619 166.723 Q 690.268 173.616 696.959 177.367 L 696.959 177.367 L 696.959 177.367 Q 703.649 181.118 712.367 181.118 L 712.367 181.118 L 712.367 181.118 Q 719.868 181.118 726.255 178.482 L 726.255 178.482 L 726.255 178.482 Q 732.641 175.847 737.101 170.778 L 737.101 170.778 L 751.293 185.173 L 751.293 185.173 Q 744.197 193.485 734.06 197.742 L 734.06 197.742 L 734.06 197.742 Q 723.923 202 712.57 202 Z  M 797.923 199.973 L 775.622 199.973 L 775.622 102.658 L 797.923 102.658 L 797.923 199.973 L 797.923 199.973 Z  M 797.923 145.841 L 797.923 145.841 L 790.219 141.989 L 790.219 141.989 Q 790.219 123.54 798.43 112.085 L 798.43 112.085 L 798.43 112.085 Q 806.641 100.63 823.266 100.63 L 823.266 100.63 L 823.266 100.63 Q 830.564 100.63 836.444 103.266 L 836.444 103.266 L 836.444 103.266 Q 842.323 105.901 847.392 111.781 L 847.392 111.781 L 832.795 126.784 L 832.795 126.784 Q 830.159 123.945 826.915 122.729 L 826.915 122.729 L 826.915 122.729 Q 823.671 121.512 819.414 121.512 L 819.414 121.512 L 819.414 121.512 Q 810.088 121.512 804.005 127.392 L 804.005 127.392 L 804.005 127.392 Q 797.923 133.271 797.923 145.841 Z " fill="rgb(255,255,255)"/></g></g></g></svg>